<?xml version="1.0" encoding="UTF-8" standalone="no"?>
<!-- Created with Inkscape (http://www.inkscape.org/) -->

<svg
   xmlns:dc="http://purl.org/dc/elements/1.1/"
   xmlns:cc="http://creativecommons.org/ns#"
   xmlns:rdf="http://www.w3.org/1999/02/22-rdf-syntax-ns#"
   xmlns:svg="http://www.w3.org/2000/svg"
   xmlns="http://www.w3.org/2000/svg"
   xmlns:inkscape="http://www.inkscape.org/namespaces/inkscape"
   version="1.1"
   width="210mm"
   height="297mm"
   id="svg2">
  <g
     id="layer1">
    <path
       d="M 0,0 L  100,0.0092 97.9535,0.4702 93.7922,0.9776 88.7261,1.6371 83.2651,2.5062 77.6837,3.4693 72.1377,4.5099 66.5932,5.6426 60.9883,6.862 55.3346,8.1277 49.8715,9.3158 44.7471,10.2801 39.8584,10.9412 35.0514,11.2829 30.2609,11.3067 25.4907,11.0152 20.784,10.4119 16.2205,9.505 11.9591,8.3243 8.243,6.9377 5.3069,5.4946 3.2461,4.2134 1.892,3.1661 1.0064,2.2837 0.4408,1.4996 0.1157,0.7743 0.0008,0.1177 0.0913,-0.5106 0.4575,-1.1031 1.1125,-1.5689 2.0519,-1.9196 3.3767,-2.2024 5.3701,-2.4488 8.5473,-2.658 13.1712,-2.7927 18.5983,-2.8254 24.2929,-2.7771 30.099,-2.6839 35.9428,-2.5676 41.7806,-2.4316 47.599,-2.2697 53.4093,-2.0757 59.2291,-1.8501 65.064,-1.5982 70.9137,-1.3256 76.7697,-1.0381 82.6065,-0.7364 88.3039,-0.4343 93.5041,-0.256 97.8531,-0.1889 100,-0.0091
  "
       id="path2991"
       style="fill:none;stroke:#000000;stroke-width:1px;stroke-linecap:butt;stroke-linejoin:miter;stroke-opacity:1" />
  </g>
</svg>